<svg width="44" height="44" xmlns="http://www.w3.org/2000/svg" xmlns:xlink="http://www.w3.org/1999/xlink"><defs><path id="a" d="M43.84 43.767V.005H0v43.762h43.84z"/></defs><g fill="none" fill-rule="evenodd"><g><mask id="b" fill="#fff"><use xlink:href="#a"/></mask><path d="M38.223 5.612C34.265 1.58 28.092.047 21.92.005 15.747.047 9.575 1.58 5.617 5.612 1.577 9.563.042 15.725 0 21.886c.042 6.162 1.577 12.324 5.617 16.275 3.957 4.032 10.13 5.565 16.302 5.606 6.173-.041 12.345-1.574 16.304-5.606 4.04-3.952 5.574-10.113 5.616-16.275-.042-6.162-1.577-12.323-5.616-16.274" fill="#EF404F" mask="url(#b)"/></g><path d="M23.936 25.494c-.497.506-1.271.698-2.045.703a3.932 3.932 0 0 1-1.02-.135v-5.216c.324-.09.671-.133 1.02-.135.774.005 1.548.197 2.045.703.507.495.7 1.268.705 2.04-.006.773-.198 1.545-.705 2.04m4.176-7.576c-1.348-1.372-3.45-1.893-5.55-1.907a11.7 11.7 0 0 0-1.69.13v-3.956h-4.964v18.713h6.654c2.1-.015 4.202-.536 5.55-1.908 1.375-1.344 1.897-3.44 1.912-5.536-.015-2.096-.537-4.192-1.912-5.536" fill-opacity=".101" fill="#000"/><path d="M23.598 25.156c-.497.505-1.271.698-2.046.703a3.932 3.932 0 0 1-1.019-.135v-5.217c.323-.09.67-.132 1.02-.135.774.006 1.548.198 2.045.703.506.496.699 1.268.704 2.04-.005.773-.198 1.546-.704 2.04m4.175-7.576c-1.347-1.371-3.449-1.893-5.55-1.907a11.7 11.7 0 0 0-1.69.131v-3.957H15.57V30.56h6.654c2.101-.014 4.203-.535 5.55-1.907 1.375-1.344 1.898-3.44 1.912-5.536-.014-2.097-.537-4.193-1.912-5.537" fill="#FFF"/></g></svg>